<?xml version="1.0" encoding="UTF-8" standalone="no"?>
<!-- Created by Cary Bass http://commons.wikipedia.com/wiki/User:Bastique on January 20, 2006 -->

<svg
   xmlns:dc="http://purl.org/dc/elements/1.1/"
   xmlns:cc="http://creativecommons.org/ns#"
   xmlns:rdf="http://www.w3.org/1999/02/22-rdf-syntax-ns#"
   xmlns:svg="http://www.w3.org/2000/svg"
   xmlns="http://www.w3.org/2000/svg"
   xmlns:sodipodi="http://sodipodi.sourceforge.net/DTD/sodipodi-0.dtd"
   xmlns:inkscape="http://www.inkscape.org/namespaces/inkscape"
   version="1.1"
   width="600"
   height="525"
   id="svg3069"
   inkscape:version="0.48.2 r9819"
   sodipodi:docname="High_voltage_warning.svg">
  <metadata
     id="metadata3085">
    <rdf:RDF>
      <cc:Work
         rdf:about="">
        <dc:format>image/svg+xml</dc:format>
        <dc:type
           rdf:resource="http://purl.org/dc/dcmitype/StillImage" />
        <dc:title></dc:title>
      </cc:Work>
    </rdf:RDF>
  </metadata>
  <sodipodi:namedview
     pagecolor="#ffffff"
     bordercolor="#666666"
     borderopacity="1"
     objecttolerance="10"
     gridtolerance="10"
     guidetolerance="10"
     inkscape:pageopacity="0"
     inkscape:pageshadow="2"
     inkscape:window-width="1360"
     inkscape:window-height="718"
     id="namedview3083"
     showgrid="false"
     inkscape:zoom="0.95047619"
     inkscape:cx="300"
     inkscape:cy="262.5"
     inkscape:window-x="-8"
     inkscape:window-y="-8"
     inkscape:window-maximized="1"
     inkscape:current-layer="svg3069" />
  <defs
     id="defs3073">
    <path
       d="M 2.8117,-1.046 A 3 3 0 0 1 .5,2.958 V 4.5119 A 10.5 10.5 0 0 1 2,25.3078 V 25.8661 A 15 15 0 0 0 14.7975,8.5433 15 15 0 0 0 23.4007,-11.201 L 22.9172,-10.9218 A 10.5 10.5 0 0 1 4.1574,-1.8229 z M 6.2265,7.825 A 10 10 0 0 1 -6.2265,7.825 9.5 9.5 0 0 0 -8.4021,10.5667 13.5 13.5 0 0 0 8.4021,10.5667 10 10 0 0 0 6.2265,7.825 z"
       id="p"
       transform="scale(10,-10) translate(26,-26)" />
  </defs>
  <g
     id="g3647">
    <path
       d="M 597.6,499.6 313.8,8 C 310.9,3 305.6,0 299.9,0 294.2,0 288.9,3.1 286,8 L 2.2,499.6 c -2.9,5 -2.9,11.1 0,16 2.9,5 8.2,8 13.9,8 h 567.6 c 5.7,0 11,-3.1 13.9,-8 2.9,-5 2.9,-11.1 0,-16 z"
       id="sign_border"
       inkscape:connector-curvature="0" />
    <polygon
       points="299.875,48.2 555.875,491.5 43.875,491.5 "
       id="polygon7"
       style="fill:#ffdc32;fill-opacity:1;stroke:none;overflow:visible"
       transform="matrix(1,0,0,0.99591458,0.125,2.0332437)" />
    <circle
       r="12.3671"
       cy="431.3772"
       cx="375.9166"
       id="Transmitter"
       sodipodi:cx="375.9166"
       sodipodi:cy="431.3772"
       sodipodi:rx="12.3671"
       sodipodi:ry="12.3671"
       transform="matrix(1.0467072,0,0,1.0725011,-93.474618,-120.22164)" />
    <path
       style="fill:#000000"
       d="m 300,365.341 37.65739,108.52135 -75.31478,0 L 300,365.341 z"
       id="Tower"
       inkscape:connector-curvature="0" />
    <path
       style="fill:none;stroke:#000000;stroke-width:12.71430779"
       d="m 269.76639,373.40954 a 42.756837,43.810489 0 0 1 0,-61.95732 m -30.23372,92.93608 a 85.513676,87.62098 0 0 1 0,-123.91484 m -30.23362,154.8935 a 128.27052,131.43147 0 0 1 0,-185.87216 m 120.93457,61.95742 a 42.756837,43.810489 0 0 1 0,61.95732 m 30.23372,-92.93608 a 85.513676,87.62098 0 0 1 0,123.91484 m 30.23361,-154.8935 a 128.27052,131.43147 0 0 1 0,185.87216"
       id="Signal waves"
       inkscape:connector-curvature="0" />
  </g>
</svg>
